<svg viewBox="0 0 67 67" aria-hidden="true" focusable="false" fill="currentColor" xmlns="http://www.w3.org/2000/svg">
  <path d="M50.837,46.137V34.425c0-6.274-3.35-9.194-7.816-9.194  c-3.604,0-5.219,1.982-6.119,3.373V25.71h-6.79c0.09,1.917,0,20.428,0,20.428h6.79V34.729c0-0.61,0.044-1.22,0.224-1.657  c0.49-1.22,1.607-2.482,3.482-2.482c2.458,0,3.44,1.874,3.44,4.618v10.929H50.837z M22.959,22.922c2.367,0,3.842-1.569,3.842-3.531  c-0.044-2.003-1.475-3.528-3.797-3.528s-3.841,1.525-3.841,3.528c0,1.962,1.474,3.531,3.753,3.531H22.959z M26.354,46.137V25.71  h-6.789v20.427H26.354z M33.5,1l28.146,16.25v32.5L33.5,66L5.354,49.75v-32.5L33.5,1z" />
</svg>