<svg xmlns="http://www.w3.org/2000/svg" xml:space="preserve" width="156mm" height="170mm" version="1.1" style="shape-rendering:geometricPrecision; text-rendering:geometricPrecision; image-rendering:optimizeQuality; fill-rule:evenodd; clip-rule:evenodd" viewBox="3800 10600 16000 17000" xmlns:xlink="http://www.w3.org/1999/xlink">
  <g id="logo">
    <path id="dot" fill="#FF0035" d="M15974.54 27149.43c-107.51,107.5 -228.09,187.41 -363.19,241.13 -135.11,50.85 -271.67,77.01 -412.59,75.56 -140.91,-1.46 -278.93,-29.04 -415.49,-84.26 -136.57,-52.31 -258.58,-133.65 -366.09,-241.16 -107.5,-107.5 -188.87,-229.54 -241.18,-366.1 -55.2,-136.54 -82.8,-274.59 -81.34,-412.59 0,-139.45 26.14,-276.04 76.99,-411.15 53.74,-135.08 133.65,-255.66 241.16,-363.17 106.07,-106.07 225.19,-184.52 361.73,-239.72 136.57,-52.31 274.59,-79.88 414.07,-79.91 138,-1.45 276.02,26.17 412.56,81.37 135.13,53.74 257.16,135.11 364.67,242.61 107.51,107.51 188.85,229.52 242.59,364.65 55.22,136.57 82.82,274.56 84.28,415.48 1.44,140.94 -26.16,278.93 -78.47,415.5 -55.18,136.56 -133.63,255.68 -239.7,361.76z" />
    <g id="content">
      <path id="j" fill="#7000F2" d="M18340.24 18763.63l-4358.32 4358.32c-84.26,84.26 -181.59,149.61 -289.1,190.31 -107.48,43.58 -217.9,63.92 -328.32,63.94 -110.43,-0.02 -217.93,-20.36 -322.5,-63.94 -106.07,-42.13 -201.97,-106.05 -286.22,-190.31 -85.72,-85.71 -148.18,-180.15 -190.28,-286.2 -43.61,-104.59 -63.95,-212.1 -65.41,-323.95 0.03,-110.43 23.25,-217.96 66.84,-325.44 20.38,-48.95 45.56,-96.31 75.19,-141.51 -217.81,190.14 -457.73,337.1 -721.35,442.58 -316.69,127.82 -642.12,191.74 -973.37,191.74 -52.23,0 -104.31,-1.58 -156.23,-4.77 15.4,313.09 87.62,610.95 212.57,892.11 130.73,287.63 307.99,546.23 534.62,772.86 252.79,252.79 537.51,441.64 857.14,569.48 316.72,127.84 642.13,191.79 973.35,191.76 331.24,0 656.68,-63.92 973.37,-191.73 319.6,-127.87 604.34,-316.74 857.11,-569.51l4358.32 -4358.32 -1217.41 -1217.42z" />
      <path id="w" fill="#8B939C" d="M12777.89 21917.93c-252.77,252.77 -537.51,441.64 -857.12,569.5 -316.69,127.82 -642.12,191.74 -973.37,191.74 -331.21,0.03 -656.63,-63.92 -973.34,-191.76 -319.63,-127.84 -604.35,-316.69 -857.14,-569.48 -226.63,-226.63 -403.89,-485.23 -534.62,-772.86 -127.84,-287.66 -200.49,-592.76 -213.56,-913.8 -321.06,-13.1 -626.14,-85.72 -916.71,-216.47 -287.63,-130.74 -547.69,-309.45 -774.32,-536.08 -252.79,-252.8 -441.64,-537.51 -569.48,-857.14 -127.84,-316.72 -191.77,-642.1 -191.77,-973.35 0,-331.24 63.93,-656.68 191.77,-973.34 127.84,-319.63 316.71,-604.37 569.48,-857.14l4358.32 -4358.32 1221.77 1221.76 -4358.32 4358.32c-84.26,84.26 -149.61,181.59 -193.2,286.2 -43.59,107.48 -65.38,216.45 -65.38,326.9 0,110.39 20.34,217.9 63.92,322.47 42.13,106.07 106.05,201.97 190.31,286.22 85.71,85.72 180.15,148.18 286.22,190.31 104.57,43.58 212.08,63.92 323.93,65.38 110.45,0 217.96,-23.25 325.44,-66.84 104.61,-43.59 201.94,-108.94 286.2,-193.2l4358.32 -4358.32 1221.76 1221.77 -4358.32 4358.32c-84.25,84.26 -149.61,181.58 -193.19,286.2 -43.59,107.48 -66.81,215.01 -66.84,325.44 1.46,111.85 21.79,219.36 65.4,323.95 42.11,106.05 104.57,200.49 190.29,286.2 84.25,84.26 180.15,148.18 286.22,190.3 104.57,43.59 212.07,63.93 322.5,63.95 110.42,-0.02 220.84,-20.36 328.32,-63.94 107.51,-40.7 204.84,-106.05 289.09,-190.31l4358.32 -4358.32 1217.42 1217.42 -4358.32 4358.32z" />
    </g>
    <g id="arrow">
      <path id="arrow_down" fill="#7000F2" d="M4076.66 12541.12l0 0 0.6 18.58 -0.03 0.02 -0.57 -18.6zm0.6 18.58l-0.03 0.02 1.36 44.01 5.81 188.6 80.32 2607.92 1612.12 -87.6 -128.91 -2647.35 -5.46 -112.45 -2.94 -59.96 -6.38 -130.91 -469.75 59.7 -731.92 93 -354.22 45.02 1.33 44.03 5.81 188.6c21.76,-26.07 44.99,-51.42 69.67,-76.1 83.64,-83.64 175.41,-150.11 277.41,-201.55 27.37,-13.79 55.44,-26.49 84.33,-38.18 136.56,-52.3 274.58,-79.88 414.06,-79.9 77.94,-0.84 155.87,7.61 233.53,25.08 59.86,13.46 119.58,32.27 179.03,56.28 110.92,44.11 213.04,106.84 305.5,187.34l-5.46 -112.45 -2.94 -59.96 -6.38 -130.91 -469.75 59.7 -731.92 93 -354.22 45.02z" />
      <path id="arrow_up" fill="#FF0035" d="M5631.75 12332.85l3148.44 -7.83 -45.76 -1601.71 -4710.89 92.85 50.38 1635.78c18.46,-21.37 37.85,-42.25 58.29,-62.68 106.07,-106.08 225.19,-184.53 361.73,-239.72 136.57,-52.31 274.59,-79.89 414.07,-79.91 137.99,-1.46 276.02,26.16 412.56,81.36 113.41,45.12 217.58,109.66 311.7,192.8l-0.52 -10.94z" />
    </g>
  </g>
</svg>