<svg xmlns="http://www.w3.org/2000/svg" xml:space="preserve" width="200mm" height="90mm" version="1.1" style="shape-rendering:geometricPrecision; text-rendering:geometricPrecision; image-rendering:optimizeQuality; fill-rule:evenodd; clip-rule:evenodd" viewBox="0 0 21000 10000" xmlns:xlink="http://www.w3.org/1999/xlink">
  <g id="logo">
    <path id="dot" fill="#FF0035" d="M20492.86 7926.83c0,152.04 -28.76,293.81 -86.31,427.32 -59.58,131.49 -137.64,246.56 -238.31,345.17 -100.67,98.61 -217.77,176.71 -353.38,234.23 -133.56,59.57 -277.35,88.33 -429.39,88.33 -152.03,0 -295.86,-28.76 -429.41,-88.33 -135.58,-57.52 -252.71,-135.62 -349.26,-234.23 -98.61,-98.61 -176.71,-213.68 -236.29,-345.17 -57.51,-133.51 -86.27,-275.28 -86.27,-427.32 0,-150.01 28.76,-289.71 86.27,-425.29 59.58,-133.55 137.68,-250.65 236.29,-349.29 96.55,-98.61 213.68,-176.68 349.26,-234.19 133.55,-57.55 277.38,-86.31 429.41,-86.31 152.04,0 295.83,28.76 429.39,86.31 135.61,57.51 252.71,135.58 353.38,234.19 100.67,98.64 178.73,215.74 238.31,349.29 57.55,135.58 86.31,275.28 86.31,425.29z" />
    <g id="content">
      <path id="j" fill="#7000F2" d="M16236.01 324.38l0 6163.6c0,119.15 -22.61,234.19 -69.85,338.98 -45.19,106.82 -108.89,199.28 -186.95,277.38 -78.1,78.06 -168.5,139.7 -273.26,182.82 -104.79,45.22 -217.8,67.83 -336.95,67.83 -121.22,0 -232.17,-22.61 -336.93,-67.83 -104.79,-43.12 -195.19,-104.76 -275.31,-182.82 -78.07,-78.1 -137.68,-170.56 -182.86,-277.38 -20.2,-49.02 -35.89,-100.32 -46.9,-153.22 -19.56,288.45 -85.29,562.02 -197.11,823.01 -133.55,314.32 -318.47,589.63 -552.7,823.86 -36.93,36.93 -74.88,72.65 -113.84,107.1 232.27,210.5 493.95,370.05 781.12,480.5 295.83,110.95 604.03,168.46 924.53,168.46 357.5,0 692.36,-67.79 1008.77,-203.4 314.35,-133.55 589.67,-318.44 823.86,-552.66 234.22,-234.23 419.14,-509.54 552.69,-823.86 135.58,-316.41 203.37,-651.3 203.37,-1008.77l0 -6163.6 -1721.68 0z" />
      <path id="w" fill="#8B939C" d="M14533.26 6487.98c0,357.47 -67.79,692.36 -203.37,1008.77 -133.55,314.32 -318.47,589.63 -552.7,823.86 -234.19,234.22 -509.5,419.11 -823.85,552.66 -316.41,135.61 -651.28,203.4 -1008.78,203.4 -320.5,0 -628.7,-57.51 -924.53,-168.46 -293.8,-113 -560.91,-277.38 -797.16,-495.14 -236.28,217.76 -503.35,382.14 -801.28,495.14 -295.83,110.95 -606.09,168.46 -926.59,168.46 -357.5,0 -692.36,-67.79 -1008.78,-203.4 -314.34,-133.55 -589.63,-318.44 -823.85,-552.66 -234.23,-234.23 -419.15,-509.54 -552.66,-823.86 -135.62,-316.41 -203.41,-651.3 -203.41,-1008.77l0 -6163.6 1727.84 0 0 6163.6c0,119.15 22.61,234.19 65.76,338.98 45.18,106.82 106.82,199.28 184.92,277.38 78.07,78.06 168.46,139.7 273.22,182.82 104.8,45.22 217.8,67.83 336.96,67.83 121.22,0 232.16,-22.61 336.96,-67.83 104.76,-43.12 195.16,-104.76 275.28,-182.82 78.1,-78.1 137.68,-170.56 182.86,-277.38 43.15,-104.79 65.76,-219.83 65.76,-338.98l0 -6163.6 1727.84 0 0 6163.6c0,119.15 22.61,234.19 65.76,338.98 45.18,106.82 104.8,199.28 182.86,277.38 80.13,78.06 170.52,139.7 275.32,182.82 104.76,45.22 215.7,67.83 336.92,67.83 119.16,0 232.16,-22.61 336.96,-67.83 104.76,-43.12 195.16,-104.76 273.25,-182.82 78.07,-78.1 141.77,-170.56 186.95,-277.38 47.24,-104.79 69.85,-219.83 69.85,-338.98l0 -6163.6 1721.69 0 0 6163.6z" />
    </g>
    <g id="arrow">
      <path id="arrow_down" fill="#7000F2" d="M1750.16 6010.27l0 0 13.55 12.72 0 0.03 -13.55 -12.75zm13.55 12.72l0 0.03 32.08 30.16 137.47 129.25 1900.87 1787.28 1078 -1201.87 -1963.11 -1780.81 -83.37 -75.66 -44.48 -40.32 -97.08 -88.06 -289.96 374.39 -451.78 583.3 -218.64 282.31 32.08 30.19 137.47 129.25c-3.04,-33.82 -4.54,-68.17 -4.54,-103.08 0,-118.28 17.89,-230.17 53.63,-338.67 9.61,-29.11 20.48,-57.93 32.64,-86.62 59.58,-133.56 137.68,-250.65 236.29,-349.29 54.51,-55.7 115.59,-104.83 182.85,-147.39 51.86,-32.82 107.38,-61.75 166.4,-86.8 109.62,-47.25 226.19,-75.1 348.49,-83.55l-83.37 -75.66 -44.48 -40.32 -97.08 -88.06 -289.96 374.39 -451.78 583.3 -218.64 282.31z" />
      <path id="arrow_up" fill="#FF0035" d="M2702.5 4763.39l2220.74 -2231.82 -1164.93 -1100.22 -3265.45 3396.76 1192.3 1121.04c-2.06,-28.16 -3.11,-56.64 -3.11,-85.54 0,-150.01 28.76,-289.71 86.28,-425.29 59.57,-133.55 137.67,-250.65 236.28,-349.29 96.55,-98.61 213.68,-176.68 349.26,-234.19 112.1,-48.29 231.39,-76.32 356.74,-84.08l-8.11 -7.37z" />
    </g>
  </g>
</svg>