<svg xmlns="http://www.w3.org/2000/svg" xml:space="preserve" width="200mm" height="140mm" version="1.1" style="shape-rendering:geometricPrecision; text-rendering:geometricPrecision; image-rendering:optimizeQuality; fill-rule:evenodd; clip-rule:evenodd" viewBox="0 0 21000 15000" xmlns:xlink="http://www.w3.org/1999/xlink">
  <defs>
    <style type="text/css">
      <![CDATA[
    .fil0 {fill:#A9ABAE;fill-rule:nonzero}
   ]]>
    </style>
  </defs>
  <g id="Camada_x0020_1">
    <metadata id="CorelCorpID_0Corel-Layer" />
    <g id="sub">
      <g id="jesus">
        <path class="fil0" d="M17701.73 10192.11l-2013.11 0 0 -877.71 2013.11 0c60.57,0 112.32,-20.92 155.27,-63.87 42.97,-44.05 64.98,-94.7 64.98,-155.27 0,-62.79 -22.01,-103.52 -64.98,-122.26 -42.95,-19.81 -94.7,-29.72 -155.27,-29.72l-916.24 0c-151.98,0 -295.15,-28.64 -428.39,-87 -133.27,-58.36 -250,-136.56 -349.11,-236.77 -99.11,-100.22 -176.2,-216.95 -233.46,-350.19 -57.27,-133.27 -85.91,-276.42 -85.91,-429.5 0,-151.98 28.64,-295.13 85.91,-428.4 57.26,-133.25 134.35,-249.99 233.46,-349.09 99.11,-99.12 215.84,-176.21 349.11,-233.47 133.24,-57.26 276.41,-85.9 428.39,-85.9l1784.04 0 0 877.71 -1784.04 0c-59.47,0 -111.24,22.01 -154.19,64.98 -42.94,42.95 -64.97,94.7 -64.97,154.17 0,62.76 22.03,115.64 64.97,159.67 42.95,44.05 94.72,66.08 154.19,66.08l916.24 0c150.87,0 292.94,25.34 426.18,75.99 133.27,50.66 249.99,121.14 349.11,211.44 98.02,90.3 177.3,199.33 234.56,325.98 58.38,126.63 87,265.41 87,416.28 0,153.08 -28.62,295.13 -87,427.29 -57.26,132.14 -136.54,248.88 -234.56,347.98 -99.12,100.23 -215.84,179.51 -349.11,235.68 -133.24,57.26 -275.31,85.9 -426.18,85.9z" />
        <path class="fil0" d="M14630.31 9789.06c-70.48,63.87 -146.45,125.53 -226.86,181.7 -80.39,57.26 -165.18,106.81 -253.28,148.66 -88.09,41.86 -179.51,74.9 -273.11,100.22 -93.61,24.22 -188.31,37.44 -285.24,37.44 -212.53,0 -412.96,-38.54 -600.19,-113.43 -187.2,-74.88 -351.3,-182.8 -492.24,-320.47 -140.96,-138.75 -251.1,-308.35 -331.49,-506.57 -81.49,-199.33 -121.14,-422.89 -121.14,-669.56l0 -1910.7 877.71 0 0 1910.7c0,115.62 17.62,219.14 52.85,310.54 35.25,91.4 83.71,168.5 143.18,231.28 60.55,61.66 131.03,109.01 211.44,142.05 80.39,31.93 167.39,48.45 259.88,48.45 90.32,0 176.21,-20.92 256.6,-62.76 80.39,-42.95 150.87,-98.02 211.45,-166.29 60.57,-69.39 107.92,-147.57 142.07,-234.57 34.12,-87 51.75,-176.2 51.75,-268.7l0 -1910.7 879.9 0 0 3455.76 -212.53 0 -290.75 -403.05z" />
        <path class="fil0" d="M10525.91 10192.11l-2013.11 0 0 -877.71 2013.11 0c60.57,0 112.32,-20.92 155.27,-63.87 42.97,-44.05 64.98,-94.7 64.98,-155.27 0,-62.79 -22.01,-103.52 -64.98,-122.26 -42.95,-19.81 -94.7,-29.72 -155.27,-29.72l-916.24 0c-151.98,0 -295.15,-28.64 -428.39,-87 -133.27,-58.36 -249.99,-136.56 -349.11,-236.77 -99.11,-100.22 -176.2,-216.95 -233.46,-350.19 -57.27,-133.27 -85.91,-276.42 -85.91,-429.5 0,-151.98 28.64,-295.13 85.91,-428.4 57.26,-133.25 134.35,-249.99 233.46,-349.09 99.12,-99.12 215.84,-176.21 349.11,-233.47 133.24,-57.26 276.41,-85.9 428.39,-85.9l1784.04 0 0 877.71 -1784.04 0c-59.47,0 -111.24,22.01 -154.19,64.98 -42.94,42.95 -64.97,94.7 -64.97,154.17 0,62.76 22.03,115.64 64.97,159.67 42.95,44.05 94.72,66.08 154.19,66.08l916.24 0c150.87,0 292.94,25.34 426.18,75.99 133.27,50.66 250,121.14 349.11,211.44 98.02,90.3 177.3,199.33 234.56,325.98 58.38,126.63 87,265.41 87,416.28 0,153.08 -28.62,295.13 -87,427.29 -57.26,132.14 -136.54,248.88 -234.56,347.98 -99.11,100.23 -215.84,179.51 -349.11,235.68 -133.24,57.26 -275.31,85.9 -426.18,85.9z" />
        <path class="fil0" d="M6536.04 9346.33c34.13,11.02 68.27,18.73 103.52,20.94 34.13,3.3 68.28,5.51 102.42,5.51 85.9,0 169.58,-12.12 248.89,-35.25 79.28,-24.22 154.16,-58.36 223.54,-102.42 70.48,-44.05 133.26,-98.01 187.23,-160.78 55.04,-63.86 100.2,-134.35 134.35,-211.44l645.32 648.64c-81.47,115.62 -176.19,220.25 -281.9,312.76 -106.84,92.51 -222.46,170.69 -345.8,235.66 -123.35,63.89 -253.3,113.43 -389.85,146.47 -136.56,33.04 -277.52,50.66 -421.78,50.66 -242.29,0 -471.34,-45.15 -685,-135.45 -214.74,-90.3 -401.94,-216.95 -561.64,-377.73 -160.78,-161.89 -286.32,-353.51 -378.83,-575.97 -92.51,-222.44 -138.76,-466.92 -138.76,-734.54 0,-273.1 46.25,-521.99 138.76,-747.74 92.51,-225.77 218.05,-418.49 378.83,-578.18 159.7,-158.57 346.9,-283.01 561.64,-371.12 213.66,-88.11 442.71,-132.14 685,-132.14 144.26,0 285.22,17.61 422.87,51.75 137.67,34.15 268.72,83.69 392.06,148.66 123.34,63.89 238.98,143.17 346.9,236.79 107.92,93.59 202.62,198.22 284.12,314.94l-1651.89 1989.98zm451.51 -1815.97c-40.74,-15.42 -81.49,-24.22 -121.13,-28.62 -39.65,-4.42 -81.49,-6.61 -124.44,-6.61 -120.04,0 -233.47,22.02 -340.29,66.08 -105.73,44.03 -198.24,106.81 -277.52,188.31 -78.2,81.49 -139.86,180.59 -185.02,295.13 -45.16,115.64 -68.27,244.48 -68.27,388.74 0,33.04 2.19,69.38 5.51,110.13 3.29,40.74 7.7,82.6 15.41,124.45 7.7,41.84 16.52,81.49 27.54,121.12 11.01,38.55 25.32,72.7 41.84,102.44l1026.37 -1361.17z" />
        <path class="fil0" d="M4499.8 8343.09c0,256.61 -48.45,496.67 -145.36,721.34 -96.91,224.65 -227.97,420.67 -395.36,586.96 -166.28,167.39 -362.31,298.45 -586.96,395.36 -224.67,96.9 -464.73,145.36 -721.34,145.36 -154.16,0 -309.46,-19.82 -463.62,-58.36l0 -993.34c68.27,40.74 142.07,71.57 222.45,93.6 79.29,20.92 159.68,31.93 241.17,31.93 127.76,0 247.78,-24.21 360.13,-72.67 113.43,-48.45 211.44,-114.53 295.13,-198.24 83.7,-83.68 149.76,-181.7 198.22,-294.02 48.45,-111.24 72.69,-231.26 72.69,-357.92l0 -2777.37 922.85 0 0 2777.37z" />
      </g>
      <g id="william">
        <path class="fil0" d="M20492.87 5124.98l-877.69 0 0 -2193.7c0,-60.58 -11.02,-117.85 -34.15,-170.71 -22.02,-53.96 -53.96,-101.31 -94.72,-142.05 -40.73,-40.76 -88.08,-72.69 -142.04,-95.82 -53.97,-22.03 -111.24,-34.13 -170.71,-34.13 -60.57,0 -116.73,12.1 -169.58,34.13 -52.88,23.13 -99.12,55.06 -138.77,95.82 -39.64,40.74 -71.57,88.09 -93.6,142.05 -23.13,52.86 -34.14,110.13 -34.14,170.71l0 2193.7 -881.01 0 0 -2193.7c0,-60.58 -11.01,-117.85 -33.04,-170.71 -23.13,-53.96 -55.07,-101.31 -95.81,-142.05 -40.75,-40.76 -88.1,-72.69 -142.06,-95.82 -53.96,-22.03 -110.14,-34.13 -170.69,-34.13 -60.57,0 -116.75,12.1 -169.6,34.13 -52.86,23.13 -99.12,55.06 -138.75,95.82 -39.66,40.74 -70.49,88.09 -93.62,142.05 -22.02,52.86 -34.14,110.13 -34.14,170.71l0 2193.7 -879.91 0 0 -3455.76 212.55 0 238.96 265.41c122.25,-103.52 257.71,-183.91 405.27,-241.17 146.47,-57.28 300.65,-84.81 459.24,-84.81 161.88,0 319.35,29.74 472.43,90.32 154.18,59.46 288.54,164.07 405.26,312.75 53.96,-73.8 114.54,-135.46 183.91,-187.23 68.29,-51.75 140.97,-93.59 218.06,-125.52 75.99,-33.04 155.27,-56.18 236.77,-69.4 81.49,-14.31 161.88,-20.92 242.27,-20.92 182.81,0 354.62,34.14 514.29,102.42 160.78,69.39 299.55,162.98 419.59,283.03 118.94,118.93 213.64,259.89 281.91,420.67 69.39,161.89 103.52,333.7 103.52,516.51l0 2193.7z" />
        <path class="fil0" d="M15428.18 5124.98l-213.64 0 -341.39 -474.64c-83.71,75.99 -172.9,146.47 -266.51,211.45 -93.62,66.06 -191.61,123.33 -295.13,170.68 -103.52,48.46 -209.26,87 -317.18,114.54 -109.03,28.64 -219.14,42.95 -331.47,42.95 -242.29,0 -471.34,-41.85 -684.99,-123.34 -214.74,-81.5 -401.95,-200.43 -561.64,-355.7 -160.78,-156.4 -286.33,-346.9 -378.84,-572.68 -92.51,-226.86 -138.75,-483.44 -138.75,-771.98 0,-268.7 46.24,-515.37 138.75,-740.04 92.51,-224.65 218.06,-417.38 378.84,-579.27 159.69,-160.78 346.9,-286.32 561.64,-375.52 213.65,-89.21 442.7,-134.35 684.99,-134.35 112.33,0 222.44,14.31 332.58,41.84 110.13,28.64 215.84,67.17 319.36,116.73 103.52,49.56 201.54,106.82 295.13,174 93.62,66.08 181.72,138.76 263.22,215.85l341.39 -409.67 213.64 0 0 3449.15zm-887.62 -1758.72c0,-120.04 -23.12,-236.76 -69.38,-350.19 -46.24,-112.33 -109.03,-212.55 -188.31,-299.55 -80.39,-86.99 -172.9,-157.47 -279.72,-209.24 -105.73,-52.85 -219.16,-79.28 -340.29,-79.28 -120.04,0 -233.47,19.81 -340.28,60.57 -105.74,41.84 -198.24,101.31 -277.53,180.6 -78.2,80.39 -139.86,178.4 -185.01,296.23 -45.16,116.75 -68.28,251.1 -68.28,400.86 0,150.87 23.12,285.24 68.28,401.97 45.15,116.73 106.81,215.85 185.01,295.13 79.29,79.3 171.79,139.86 277.53,180.61 106.81,40.74 220.24,61.68 340.28,61.68 121.13,0 234.56,-26.44 340.29,-79.3 106.82,-52.86 199.33,-122.23 279.72,-209.23 79.28,-87.01 142.07,-187.21 188.31,-300.66 46.26,-112.32 69.38,-229.05 69.38,-350.2z" />
        <polygon class="fil0" points="11410.78,5124.98 10524.26,5124.98 10524.26,1669.22 11410.78,1669.22 " />
        <path class="fil0" d="M11562.75 730.96c0,81.49 -15.41,157.48 -46.26,229.05 -31.94,70.48 -73.78,132.16 -127.74,185.01 -53.96,52.86 -116.73,94.72 -189.42,125.55 -71.58,31.94 -148.66,47.35 -230.15,47.35 -81.5,0 -158.59,-15.41 -230.18,-47.35 -72.67,-30.83 -135.45,-72.69 -187.21,-125.55 -52.85,-52.85 -94.71,-114.53 -126.65,-185.01 -30.83,-71.57 -46.24,-147.56 -46.24,-229.05 0,-80.41 15.41,-155.29 46.24,-227.97 31.94,-71.58 73.8,-134.35 126.65,-187.22 51.76,-52.86 114.54,-94.7 187.21,-125.53 71.59,-30.85 148.68,-46.27 230.18,-46.27 81.49,0 158.57,15.42 230.15,46.27 72.69,30.83 135.46,72.67 189.42,125.53 53.96,52.87 95.8,115.64 127.74,187.22 30.85,72.68 46.26,147.56 46.26,227.97z" />
        <polygon class="fil0" points="9852.49,5124.98 8965.97,5124.98 8965.97,294.85 9852.49,294.85 " />
        <polygon class="fil0" points="8294.2,5124.98 7407.69,5124.98 7407.69,294.85 8294.2,294.85 " />
        <polygon class="fil0" points="6735.91,5124.98 5849.4,5124.98 5849.4,1669.22 6735.91,1669.22 " />
        <path class="fil0" d="M6887.89 730.96c0,81.49 -15.42,157.48 -46.27,229.05 -31.93,70.48 -73.77,132.16 -127.73,185.01 -53.97,52.86 -116.73,94.72 -189.42,125.55 -71.59,31.94 -148.66,47.35 -230.16,47.35 -81.49,0 -158.59,-15.41 -230.17,-47.35 -72.67,-30.83 -135.46,-72.69 -187.21,-125.55 -52.86,-52.85 -94.72,-114.53 -126.65,-185.01 -30.83,-71.57 -46.25,-147.56 -46.25,-229.05 0,-80.41 15.42,-155.29 46.25,-227.97 31.93,-71.58 73.79,-134.35 126.65,-187.22 51.75,-52.86 114.54,-94.7 187.21,-125.53 71.58,-30.85 148.68,-46.27 230.17,-46.27 81.5,0 158.57,15.42 230.16,46.27 72.69,30.83 135.45,72.67 189.42,125.53 53.96,52.87 95.8,115.64 127.73,187.22 30.85,72.68 46.27,147.56 46.27,227.97z" />
        <path class="fil0" d="M5117.05 3802.37c0,191.61 -36.34,371.12 -109.01,540.72 -71.59,168.48 -170.7,316.06 -296.25,441.6 -125.53,125.55 -273.11,224.65 -441.6,296.24 -169.6,72.69 -349.09,109.03 -540.72,109.03 -171.79,0 -336.99,-30.83 -495.56,-90.3 -157.49,-60.57 -300.66,-148.68 -427.29,-265.41 -126.66,116.73 -269.81,204.84 -429.5,265.41 -158.57,59.47 -324.88,90.3 -496.67,90.3 -191.63,0 -371.12,-36.34 -540.72,-109.03 -168.49,-71.59 -316.05,-170.69 -441.6,-296.24 -125.54,-125.54 -224.66,-273.12 -296.23,-441.6 -72.69,-169.6 -109.03,-349.11 -109.03,-540.72l0 -3303.78 926.15 0 0 3303.78c0,63.87 12.12,125.53 35.25,181.71 24.22,57.25 57.26,106.81 99.12,148.67 41.84,41.85 90.29,74.89 146.45,98 56.17,24.24 116.74,36.36 180.61,36.36 64.98,0 124.44,-12.12 180.62,-36.36 56.15,-23.11 104.6,-56.15 147.55,-98 41.86,-41.86 73.8,-91.42 98.02,-148.67 23.13,-56.18 35.25,-117.84 35.25,-181.71l0 -3303.78 926.14 0 0 3303.78c0,63.87 12.12,125.53 35.25,181.71 24.22,57.25 56.18,106.81 98.02,148.67 42.95,41.85 91.4,74.89 147.57,98 56.16,24.24 115.62,36.36 180.6,36.36 63.87,0 124.44,-12.12 180.61,-36.36 56.16,-23.11 104.61,-56.15 146.47,-98 41.85,-41.86 75.99,-91.42 100.21,-148.67 25.32,-56.18 37.44,-117.84 37.44,-181.71l0 -3303.78 922.85 0 0 3303.78z" />
      </g>
    </g>
  </g>
</svg>