<svg xmlns="http://www.w3.org/2000/svg" xml:space="preserve" width="210mm" height="235mm" version="1.1" style="shape-rendering:geometricPrecision; text-rendering:geometricPrecision; image-rendering:optimizeQuality; fill-rule:evenodd; clip-rule:evenodd" viewBox="0 0 21000 23500" xmlns:xlink="http://www.w3.org/1999/xlink">
  <path id="dot" fill="#FF0035" d="M15817.24 22572.46c-146.38,141.35 -309.6,245.46 -491.65,314.19 -181.98,64.89 -365.34,96.71 -553.87,91.47 -188.53,-5.24 -372.59,-45.37 -554.04,-122.45 -181.53,-73.19 -342.9,-184.89 -484.25,-331.26 -141.35,-146.38 -247.38,-311.58 -314.19,-495.55 -70.68,-184 -104.38,-369.38 -99.21,-554.01 3.26,-186.61 41.43,-368.78 112.63,-548.39 75.07,-179.51 184.82,-339 331.19,-480.35 144.42,-139.46 305.66,-241.66 489.66,-312.34 183.97,-66.81 369.31,-100.48 555.96,-97.26 184.7,1.28 368.75,41.47 550.18,118.52 179.57,75.07 340.97,186.8 482.33,333.18 141.35,146.37 247.34,311.54 316.1,493.63 70.71,184.03 104.42,369.34 103.08,557.94 -1.37,188.64 -41.53,372.65 -114.72,554.18 -77.02,181.46 -184.78,339.03 -329.2,478.5z" />
  <path id="j" fill="#7000F2" d="M19178.82 11406.08l-5933.98 5730.38c-114.72,110.78 -246.49,195.96 -391.3,247.91 -144.85,55.81 -293.09,80.45 -440.85,77.9 -147.77,-2.61 -291.15,-32.34 -430.06,-93.1 -140.97,-58.86 -267.8,-146.63 -378.58,-261.35 -112.7,-116.7 -194.08,-244.53 -247.94,-387.43 -55.92,-140.98 -80.62,-285.32 -79.95,-435.03 2.61,-147.77 36.2,-291.12 97.04,-433.93 28.42,-65.03 63.22,-127.82 103.92,-187.61 -295.91,249.35 -620.39,440.41 -975.62,575.4 -426.77,163.65 -863.76,241.58 -1307.02,233.85 -69.89,-1.22 -139.56,-4.56 -208.95,-10.03 13.29,419.31 102.98,819.59 263.61,1198.75 168.23,387.95 399.39,738.15 697.37,1046.7 332.37,344.19 708.96,603.55 1133.69,782.09 420.84,178.48 854.8,271.65 1298.03,279.35 443.26,7.74 880.24,-70.2 1307.01,-233.84 430.68,-163.64 816.12,-409.74 1160.27,-742.08l5933.98 -5730.38 -1600.67 -1657.55z" />
  <path id="w" fill="#8B939C" d="M11661.77 15497.14c-344.15,332.35 -729.6,578.44 -1160.27,742.08 -426.77,163.65 -863.76,241.58 -1307.02,233.85 -443.22,-7.71 -877.19,-100.88 -1298.02,-279.35 -424.73,-178.54 -801.32,-437.9 -1133.7,-782.09 -297.97,-308.56 -529.14,-658.75 -697.36,-1046.71 -164.36,-387.92 -254.44,-797.89 -264.43,-1227.8 -429.33,-25.03 -835.88,-129.33 -1221.66,-311.09 -381.85,-181.66 -725.68,-426.89 -1023.65,-735.45 -332.38,-344.19 -578.44,-729.6 -742.05,-1160.3 -163.68,-426.81 -241.61,-863.73 -233.88,-1306.99 7.74,-443.26 100.88,-877.25 279.35,-1298.02 178.54,-424.73 437.94,-801.36 782.09,-1133.7l5933.98 -5730.38 1606.39 1663.47 -5933.98 5730.38c-114.71,110.78 -204.44,239.5 -265.21,378.47 -60.84,142.81 -92.55,288.12 -95.13,435.92 -2.57,147.73 22.13,292.06 78.01,433.01 53.9,142.93 137.19,272.75 247.98,387.46 112.69,116.71 237.61,202.5 378.57,261.35 138.91,60.77 282.3,90.49 431.94,95.06 147.8,2.57 292.21,-26.03 437.06,-81.84 141.01,-55.88 272.77,-141.07 387.49,-251.85l5933.98 -5730.38 1606.4 1663.47 -5933.98 5730.38c-114.72,110.78 -204.45,239.5 -265.22,378.47 -60.84,142.82 -94.43,286.17 -97.04,433.93 -0.66,149.72 24.04,294.06 79.96,435.04 53.86,142.89 135.24,270.72 247.94,387.43 110.78,114.71 237.61,202.49 378.57,261.34 138.91,60.77 282.3,90.49 430.06,93.11 147.77,2.54 296.01,-22.09 440.85,-77.91 144.82,-51.94 276.58,-137.12 391.3,-247.9l5933.98 -5730.38 1600.68 1657.55 -5933.98 5730.37z" />
  <g id="arrow">
    <path id="arrow_down" fill="#7000F2" d="M237.05 2746.12l0 0 0.36 24.88 -0.03 0.03 -0.33 -24.91zm0.36 24.88l-0.03 0.03 0.79 58.92 3.37 252.52 46.57 3491.71 2159.33 -79.55 -110.66 -3545.62 -4.68 -150.61 -2.53 -80.31 -5.48 -175.33 -630.01 68.91 -981.6 107.36 -475.07 51.97 0.76 58.95 3.37 252.52c29.73,-34.38 61.41,-67.76 95.02,-100.21 113.87,-109.97 238.22,-196.77 375.92,-263.23 36.95,-17.81 74.81,-34.15 113.74,-49.11 183.96,-66.81 369.31,-100.49 555.95,-97.26 104.31,0.69 208.4,13.82 311.91,39.01 79.8,19.42 159.28,45.98 238.27,79.51 147.39,61.61 282.58,147.94 404.43,257.83l-4.68 -150.61 -2.53 -80.31 -5.48 -175.33 -630.01 68.91 -981.6 107.36 -475.07 51.97z" />
    <path id="arrow_up" fill="#FF0035" d="M2322.89 2503.75l4213.34 63.06 -23.83 -2144.43 -6306.14 14.21 29.21 2190.14c25.2,-28.17 51.64,-55.66 79.46,-82.52 144.42,-139.47 305.66,-241.67 489.66,-312.34 183.97,-66.81 369.31,-100.49 555.96,-97.26 184.7,1.27 368.75,41.46 550.17,118.52 150.72,63.02 288.61,151.82 412.61,265.28l-0.44 -14.66z" />
  </g>
</svg>